<svg width="279" height="319" viewBox="0 0 279 319" fill="none" xmlns="http://www.w3.org/2000/svg">
<path fill-rule="evenodd" clip-rule="evenodd" d="M106.495 153.883L87.7053 140.245V76.2103H96.2004V135.927L108.695 145.001C112.207 133.202 117.581 123.621 124.079 117.673C117.562 109.062 119.376 96.7609 128.117 90.3738C126.819 69.119 113.393 50.3825 93.5569 42.3745L96.7121 34.4967C118.647 43.373 133.809 63.5666 136.317 86.9343H142.68C145.189 63.5666 160.356 43.373 182.286 34.4967L185.441 42.3745C165.609 50.3776 152.179 69.1142 150.881 90.3738C159.618 96.7609 161.446 109.062 154.919 117.673C159.608 121.967 163.718 128.156 166.96 135.696L182.788 122.873V76.2103H191.288V115.99L278.439 45.4184C278.377 43.7589 278.309 42.0851 278.227 40.4208C229.928 37.9653 182.643 24.183 139.487 0C96.3356 24.183 49.0453 37.9653 0.746795 40.4208C-3.17999 127.973 8.37887 195.225 35.4274 242.216L73.4457 211.419L82.8041 158.726L104.483 169.03C104.855 163.767 105.525 158.697 106.495 153.883ZM104.243 178.283L89.2493 171.158L83.5425 203.271L89.36 198.549L88.7134 193.874L93.6199 195.099L104.571 186.238C104.378 183.628 104.272 180.974 104.243 178.283Z" fill="black"/>
<path fill-rule="evenodd" clip-rule="evenodd" d="M110.451 214.752L101.348 223.305L93.7789 230.44L53.7101 268.155C70.9368 288.247 92.3218 302.898 117.856 312.116C130.364 251.044 172.44 199.711 230.69 175.711C184.457 211.067 152.169 261.584 139.511 318.397C236.021 296.612 282.448 209.234 278.801 56.2917C243.257 89.7417 208.046 122.893 172.918 155.947L139.511 187.395L110.451 214.752Z" fill="black"/>
</svg>
