<svg width="383" height="94" viewBox="0 0 383 94" fill="none" xmlns="http://www.w3.org/2000/svg">
<path d="M357.628 7.35999C362.332 7.35999 366.58 8.46399 370.372 10.672C374.212 12.88 377.212 15.976 379.372 19.96C381.58 23.896 382.684 28.36 382.684 33.352C382.684 38.344 381.58 42.832 379.372 46.816C377.212 50.752 374.212 53.848 370.372 56.104C366.58 58.312 362.332 59.416 357.628 59.416C352.876 59.416 348.58 58.312 344.74 56.104C340.948 53.848 337.948 50.752 335.74 46.816C333.532 42.832 332.428 38.344 332.428 33.352C332.428 28.36 333.532 23.896 335.74 19.96C337.948 15.976 340.948 12.88 344.74 10.672C348.58 8.46399 352.876 7.35999 357.628 7.35999ZM357.628 14.992C354.364 14.992 351.46 15.736 348.916 17.224C346.372 18.712 344.38 20.848 342.94 23.632C341.548 26.416 340.852 29.656 340.852 33.352C340.852 37.048 341.548 40.288 342.94 43.072C344.38 45.856 346.372 47.992 348.916 49.48C351.46 50.968 354.364 51.712 357.628 51.712C360.844 51.712 363.7 50.968 366.196 49.48C368.74 47.992 370.708 45.856 372.1 43.072C373.54 40.288 374.26 37.048 374.26 33.352C374.26 29.656 373.54 26.416 372.1 23.632C370.708 20.848 368.74 18.712 366.196 17.224C363.7 15.736 360.844 14.992 357.628 14.992Z" fill="#21BF5A"/>
<path d="M317.765 58.84L305.093 38.536H299.261V58.84H291.053V8.008H308.981C314.789 8.008 319.181 9.424 322.157 12.256C325.181 15.088 326.693 18.832 326.693 23.488C326.693 27.472 325.565 30.736 323.309 33.28C321.101 35.824 317.885 37.456 313.661 38.176L326.981 58.84H317.765ZM299.261 32.704H308.333C314.957 32.704 318.269 29.776 318.269 23.92C318.269 21.136 317.453 18.976 315.821 17.44C314.237 15.856 311.741 15.064 308.333 15.064H299.261V32.704Z" fill="#21BF5A"/>
<path d="M257.144 39.112V58.84H248.936V8.008H266.216C272.072 8.008 276.464 9.4 279.392 12.184C282.368 14.968 283.856 18.784 283.856 23.632C283.856 28.432 282.344 32.224 279.32 35.008C276.296 37.744 271.928 39.112 266.216 39.112H257.144ZM265.352 32.416C272.12 32.416 275.504 29.488 275.504 23.632C275.504 20.752 274.688 18.568 273.056 17.08C271.472 15.544 268.904 14.776 265.352 14.776H257.144V32.416H265.352Z" fill="#21BF5A"/>
<path d="M243.233 7.864V20.536H229.697V58.84H213.713V20.536H200.321V7.864H243.233Z" fill="#21BF5A"/>
<path d="M197.585 43.792C197.585 46.72 196.817 49.36 195.281 51.712C193.793 54.064 191.609 55.936 188.729 57.328C185.849 58.672 182.417 59.344 178.433 59.344C172.337 59.344 167.297 57.928 163.313 55.096C159.377 52.216 157.241 48.016 156.905 42.496H173.897C174.137 45.424 175.433 46.888 177.785 46.888C178.601 46.888 179.249 46.672 179.729 46.24C180.257 45.808 180.521 45.184 180.521 44.368C180.521 43.168 179.897 42.232 178.649 41.56C177.449 40.84 175.481 40.024 172.745 39.112C169.529 38.056 166.841 36.976 164.681 35.872C162.569 34.768 160.721 33.136 159.137 30.976C157.553 28.816 156.761 26.008 156.761 22.552C156.761 19.24 157.601 16.432 159.281 14.128C161.009 11.776 163.337 10 166.265 8.8C169.241 7.6 172.577 7 176.273 7C182.369 7 187.217 8.416 190.817 11.248C194.417 14.08 196.385 18.16 196.721 23.488H179.513C179.273 20.8 178.169 19.456 176.201 19.456C175.529 19.456 174.977 19.672 174.545 20.104C174.113 20.488 173.897 21.088 173.897 21.904C173.897 23.008 174.497 23.92 175.697 24.64C176.945 25.312 178.865 26.104 181.457 27.016C184.721 28.168 187.409 29.32 189.521 30.472C191.681 31.576 193.553 33.232 195.137 35.44C196.769 37.6 197.585 40.384 197.585 43.792Z" fill="#21BF5A"/>
<path d="M134.177 20.536V26.872H150.017V38.896H134.177V46.096H152.177V58.84H118.193V7.864H152.177V20.536H134.177Z" fill="#21BF5A"/>
<path d="M87.4191 42.64V58.84H71.4351V7.864H93.7551C99.9951 7.864 104.771 9.448 108.083 12.616C111.443 15.784 113.123 20.032 113.123 25.36C113.123 28.576 112.379 31.504 110.891 34.144C109.403 36.736 107.195 38.8 104.267 40.336C101.387 41.872 97.8831 42.64 93.7551 42.64H87.4191ZM91.9551 30.04C95.2671 30.04 96.9231 28.48 96.9231 25.36C96.9231 22.24 95.2671 20.68 91.9551 20.68H87.4191V30.04H91.9551Z" fill="#21BF5A"/>
<path fill-rule="evenodd" clip-rule="evenodd" d="M22.0758 31.899L18.1808 29.072V15.798H19.9418V28.177L22.5319 30.058C23.2599 27.612 24.3738 25.626 25.7208 24.393C24.3698 22.608 24.7459 20.058 26.5579 18.734C26.2889 14.328 23.5058 10.444 19.3938 8.784L20.0479 7.15097C24.5949 8.99097 27.7378 13.177 28.2578 18.021H29.5768C30.0968 13.177 33.2409 8.99097 37.7869 7.15097L38.4408 8.784C34.3298 10.443 31.5459 14.327 31.2769 18.734C33.0879 20.058 33.4669 22.608 32.1139 24.393C33.0859 25.283 33.9379 26.566 34.6099 28.129L37.8909 25.471V15.798H39.6529V24.044L57.7189 9.41498C57.7059 9.07098 57.6918 8.724 57.6748 8.379C47.6628 7.87 37.8608 5.013 28.9148 0C19.9698 5.013 10.1668 7.87 0.154806 8.379C-0.659194 26.528 1.73689 40.469 7.34389 50.21L15.2249 43.826L17.1648 32.903L21.6588 35.039C21.7358 33.948 21.8748 32.897 22.0758 31.899ZM21.6089 36.957L18.5009 35.48L17.3179 42.137L18.5238 41.158L18.3898 40.189L19.4069 40.443L21.6769 38.606C21.6369 38.065 21.6149 37.515 21.6089 36.957Z" fill="#21BF5A"/>
<path fill-rule="evenodd" clip-rule="evenodd" d="M22.8959 44.517L21.0088 46.2899L19.4398 47.769L11.1338 55.5869C14.7048 59.7519 19.1378 62.789 24.4308 64.7C27.0238 52.04 35.7458 41.399 47.8208 36.424C38.2368 43.753 31.5438 54.225 28.9198 66.002C48.9258 61.486 58.5498 43.3729 57.7938 11.6689C50.4258 18.6029 43.1268 25.475 35.8448 32.327L28.9198 38.8459L22.8959 44.517Z" fill="#21BF5A"/>
<path d="M382.617 93.1338H378.835L367.457 75.8513V93.1338H363.676V69.7477H367.457L378.835 87.0965V69.7477H382.617V93.1338Z" fill="#21BF5A"/>
<path d="M348.316 69.416C350.483 69.416 352.44 69.9246 354.187 70.9419C355.956 71.9591 357.339 73.3855 358.334 75.221C359.351 77.0344 359.86 79.0911 359.86 81.391C359.86 83.6909 359.351 85.7586 358.334 87.5941C357.339 89.4075 355.956 90.8339 354.187 91.8732C352.44 92.8905 350.483 93.3991 348.316 93.3991C346.127 93.3991 344.147 92.8905 342.378 91.8732C340.631 90.8339 339.249 89.4075 338.232 87.5941C337.214 85.7586 336.706 83.6909 336.706 81.391C336.706 79.0911 337.214 77.0344 338.232 75.221C339.249 73.3855 340.631 71.9591 342.378 70.9419C344.147 69.9246 346.127 69.416 348.316 69.416ZM348.316 72.9322C346.812 72.9322 345.474 73.275 344.302 73.9605C343.13 74.6461 342.212 75.6302 341.549 76.9128C340.908 78.1954 340.587 79.6882 340.587 81.391C340.587 83.0938 340.908 84.5865 341.549 85.8692C342.212 87.1518 343.13 88.1359 344.302 88.8214C345.474 89.507 346.812 89.8498 348.316 89.8498C349.798 89.8498 351.113 89.507 352.263 88.8214C353.435 88.1359 354.342 87.1518 354.983 85.8692C355.647 84.5865 355.979 83.0938 355.979 81.391C355.979 79.6882 355.647 78.1954 354.983 76.9128C354.342 75.6302 353.435 74.6461 352.263 73.9605C351.113 73.275 349.798 72.9322 348.316 72.9322Z" fill="#21BF5A"/>
<path d="M333.664 81.391C333.664 83.7572 333.177 85.8249 332.204 87.5941C331.253 89.3411 329.849 90.7012 327.991 91.6742C326.156 92.6472 323.956 93.1338 321.39 93.1338H313.562V69.7145H321.39C323.956 69.7145 326.156 70.2011 327.991 71.1741C329.849 72.125 331.253 73.474 332.204 75.221C333.177 76.9681 333.664 79.0247 333.664 81.391ZM321.092 89.7171C323.9 89.7171 326.056 88.9873 327.56 87.5277C329.064 86.0682 329.816 84.0226 329.816 81.391C329.816 78.7594 329.064 76.7138 327.56 75.2542C326.056 73.7947 323.9 73.0649 321.092 73.0649H317.343V89.7171H321.092Z" fill="#21BF5A"/>
<path d="M308.985 93.1338H305.203L293.825 75.8513V93.1338H290.043V69.7477H293.825L305.203 87.0965V69.7477H308.985V93.1338Z" fill="#21BF5A"/>
<path d="M274.684 69.416C276.851 69.416 278.808 69.9246 280.555 70.9419C282.324 71.9591 283.706 73.3855 284.702 75.221C285.719 77.0344 286.227 79.0911 286.227 81.391C286.227 83.6909 285.719 85.7586 284.702 87.5941C283.706 89.4075 282.324 90.8339 280.555 91.8732C278.808 92.8905 276.851 93.3991 274.684 93.3991C272.494 93.3991 270.515 92.8905 268.746 91.8732C266.999 90.8339 265.617 89.4075 264.6 87.5941C263.582 85.7586 263.074 83.6909 263.074 81.391C263.074 79.0911 263.582 77.0344 264.6 75.221C265.617 73.3855 266.999 71.9591 268.746 70.9419C270.515 69.9246 272.494 69.416 274.684 69.416ZM274.684 72.9322C273.18 72.9322 271.842 73.275 270.67 73.9605C269.498 74.6461 268.58 75.6302 267.917 76.9128C267.275 78.1954 266.955 79.6882 266.955 81.391C266.955 83.0938 267.275 84.5865 267.917 85.8692C268.58 87.1518 269.498 88.1359 270.67 88.8214C271.842 89.507 273.18 89.8498 274.684 89.8498C276.165 89.8498 277.481 89.507 278.631 88.8214C279.803 88.1359 280.71 87.1518 281.351 85.8692C282.015 84.5865 282.346 83.0938 282.346 81.391C282.346 79.6882 282.015 78.1954 281.351 76.9128C280.71 75.6302 279.803 74.6461 278.631 73.9605C277.481 73.275 276.165 72.9322 274.684 72.9322Z" fill="#21BF5A"/>
<path d="M252.782 90.1815H260.875V93.1338H249V69.7145H252.782V90.1815Z" fill="#21BF5A"/>
</svg>
